<mxfile host="app.diagrams.net" modified="2023-12-12T05:37:14.885Z" agent="Mozilla/5.0 (Windows NT 10.0; Win64; x64) AppleWebKit/537.36 (KHTML, like Gecko) Chrome/120.0.0.0 Safari/537.36" etag="7oN1J8VgKoE2xsZ0ccjd" version="22.1.7" type="device">
  <diagram name="Страница — 1" id="yCKdC47Clo2UTWVfqIkY">
    <mxGraphModel dx="1687" dy="918" grid="1" gridSize="10" guides="1" tooltips="1" connect="1" arrows="1" fold="1" page="1" pageScale="1" pageWidth="827" pageHeight="1169" math="0" shadow="0">
      <root>
        <mxCell id="0" />
        <mxCell id="1" parent="0" />
        <mxCell id="aJ3KBxngWNwSico5maxv-33" value="" style="rounded=1;whiteSpace=wrap;html=1;fillColor=#A0A0A0;" vertex="1" parent="1">
          <mxGeometry x="980" y="900" width="200" height="200" as="geometry" />
        </mxCell>
        <mxCell id="aJ3KBxngWNwSico5maxv-45" style="edgeStyle=orthogonalEdgeStyle;rounded=0;orthogonalLoop=1;jettySize=auto;html=1;entryX=0;entryY=0.5;entryDx=0;entryDy=0;strokeWidth=3;" edge="1" parent="1" source="aJ3KBxngWNwSico5maxv-2" target="aJ3KBxngWNwSico5maxv-7">
          <mxGeometry relative="1" as="geometry" />
        </mxCell>
        <mxCell id="aJ3KBxngWNwSico5maxv-2" value="" style="rounded=1;whiteSpace=wrap;html=1;fillColor=#A0A0A0;" vertex="1" parent="1">
          <mxGeometry x="300" y="220" width="200" height="200" as="geometry" />
        </mxCell>
        <mxCell id="aJ3KBxngWNwSico5maxv-1" value="Happy Cat Box" style="rounded=1;whiteSpace=wrap;html=1;" vertex="1" parent="1">
          <mxGeometry x="330" y="250" width="140" height="140" as="geometry" />
        </mxCell>
        <mxCell id="aJ3KBxngWNwSico5maxv-3" value="Внешняя система" style="text;html=1;strokeColor=none;fillColor=none;align=center;verticalAlign=middle;whiteSpace=wrap;rounded=0;" vertex="1" parent="1">
          <mxGeometry x="300" y="220" width="200" height="30" as="geometry" />
        </mxCell>
        <mxCell id="aJ3KBxngWNwSico5maxv-46" style="edgeStyle=orthogonalEdgeStyle;rounded=0;orthogonalLoop=1;jettySize=auto;html=1;entryX=0.5;entryY=0;entryDx=0;entryDy=0;strokeWidth=3;" edge="1" parent="1" source="aJ3KBxngWNwSico5maxv-7" target="aJ3KBxngWNwSico5maxv-16">
          <mxGeometry relative="1" as="geometry" />
        </mxCell>
        <mxCell id="aJ3KBxngWNwSico5maxv-7" value="" style="rounded=1;whiteSpace=wrap;html=1;fillColor=#6AAA78;" vertex="1" parent="1">
          <mxGeometry x="640" y="220" width="200" height="200" as="geometry" />
        </mxCell>
        <mxCell id="aJ3KBxngWNwSico5maxv-8" value="Интеллектуальный матчинг сотридников и клиентов" style="rounded=1;whiteSpace=wrap;html=1;" vertex="1" parent="1">
          <mxGeometry x="670" y="250" width="140" height="140" as="geometry" />
        </mxCell>
        <mxCell id="aJ3KBxngWNwSico5maxv-9" value="Сервис" style="text;html=1;strokeColor=none;fillColor=none;align=center;verticalAlign=middle;whiteSpace=wrap;rounded=0;" vertex="1" parent="1">
          <mxGeometry x="640" y="220" width="200" height="30" as="geometry" />
        </mxCell>
        <mxCell id="aJ3KBxngWNwSico5maxv-48" style="edgeStyle=orthogonalEdgeStyle;rounded=0;orthogonalLoop=1;jettySize=auto;html=1;entryX=0.5;entryY=0;entryDx=0;entryDy=0;strokeWidth=3;" edge="1" parent="1" source="aJ3KBxngWNwSico5maxv-10" target="aJ3KBxngWNwSico5maxv-28">
          <mxGeometry relative="1" as="geometry" />
        </mxCell>
        <mxCell id="aJ3KBxngWNwSico5maxv-50" style="edgeStyle=orthogonalEdgeStyle;rounded=0;orthogonalLoop=1;jettySize=auto;html=1;entryX=0;entryY=0.5;entryDx=0;entryDy=0;strokeWidth=3;" edge="1" parent="1" source="aJ3KBxngWNwSico5maxv-10" target="aJ3KBxngWNwSico5maxv-20">
          <mxGeometry relative="1" as="geometry" />
        </mxCell>
        <mxCell id="aJ3KBxngWNwSico5maxv-10" value="" style="rounded=1;whiteSpace=wrap;html=1;fillColor=#6AAA78;" vertex="1" parent="1">
          <mxGeometry x="640" y="560" width="200" height="200" as="geometry" />
        </mxCell>
        <mxCell id="aJ3KBxngWNwSico5maxv-11" value="Планирование визитов" style="rounded=1;whiteSpace=wrap;html=1;" vertex="1" parent="1">
          <mxGeometry x="670" y="590" width="140" height="140" as="geometry" />
        </mxCell>
        <mxCell id="aJ3KBxngWNwSico5maxv-47" style="edgeStyle=orthogonalEdgeStyle;rounded=0;orthogonalLoop=1;jettySize=auto;html=1;entryX=0;entryY=0.5;entryDx=0;entryDy=0;strokeWidth=3;" edge="1" parent="1" source="aJ3KBxngWNwSico5maxv-13" target="aJ3KBxngWNwSico5maxv-10">
          <mxGeometry relative="1" as="geometry" />
        </mxCell>
        <mxCell id="aJ3KBxngWNwSico5maxv-13" value="" style="rounded=1;whiteSpace=wrap;html=1;fillColor=#6AAA78;" vertex="1" parent="1">
          <mxGeometry x="300" y="560" width="200" height="200" as="geometry" />
        </mxCell>
        <mxCell id="aJ3KBxngWNwSico5maxv-14" value="Скоринг работников перед тем как добавить их в систему как воркеров" style="rounded=1;whiteSpace=wrap;html=1;" vertex="1" parent="1">
          <mxGeometry x="330" y="590" width="140" height="140" as="geometry" />
        </mxCell>
        <mxCell id="aJ3KBxngWNwSico5maxv-15" value="Сервис" style="text;html=1;strokeColor=none;fillColor=none;align=center;verticalAlign=middle;whiteSpace=wrap;rounded=0;" vertex="1" parent="1">
          <mxGeometry x="300" y="560" width="200" height="30" as="geometry" />
        </mxCell>
        <mxCell id="aJ3KBxngWNwSico5maxv-16" value="Сервис" style="text;html=1;strokeColor=none;fillColor=none;align=center;verticalAlign=middle;whiteSpace=wrap;rounded=0;" vertex="1" parent="1">
          <mxGeometry x="640" y="560" width="200" height="30" as="geometry" />
        </mxCell>
        <mxCell id="aJ3KBxngWNwSico5maxv-51" style="edgeStyle=orthogonalEdgeStyle;rounded=0;orthogonalLoop=1;jettySize=auto;html=1;entryX=0;entryY=0.5;entryDx=0;entryDy=0;strokeWidth=3;" edge="1" parent="1" source="aJ3KBxngWNwSico5maxv-20" target="aJ3KBxngWNwSico5maxv-37">
          <mxGeometry relative="1" as="geometry" />
        </mxCell>
        <mxCell id="aJ3KBxngWNwSico5maxv-20" value="" style="rounded=1;whiteSpace=wrap;html=1;fillColor=#6AAA78;" vertex="1" parent="1">
          <mxGeometry x="980" y="560" width="200" height="200" as="geometry" />
        </mxCell>
        <mxCell id="aJ3KBxngWNwSico5maxv-21" value="Контроль качества работы сотрудников" style="rounded=1;whiteSpace=wrap;html=1;" vertex="1" parent="1">
          <mxGeometry x="1010" y="590" width="140" height="140" as="geometry" />
        </mxCell>
        <mxCell id="aJ3KBxngWNwSico5maxv-52" style="edgeStyle=orthogonalEdgeStyle;rounded=0;orthogonalLoop=1;jettySize=auto;html=1;entryX=0.5;entryY=1;entryDx=0;entryDy=0;strokeWidth=3;" edge="1" parent="1" source="aJ3KBxngWNwSico5maxv-22" target="aJ3KBxngWNwSico5maxv-34">
          <mxGeometry relative="1" as="geometry" />
        </mxCell>
        <mxCell id="aJ3KBxngWNwSico5maxv-53" style="edgeStyle=orthogonalEdgeStyle;rounded=0;orthogonalLoop=1;jettySize=auto;html=1;exitX=0.75;exitY=0;exitDx=0;exitDy=0;entryX=0.5;entryY=1;entryDx=0;entryDy=0;strokeWidth=3;" edge="1" parent="1" source="aJ3KBxngWNwSico5maxv-22" target="aJ3KBxngWNwSico5maxv-41">
          <mxGeometry relative="1" as="geometry" />
        </mxCell>
        <mxCell id="aJ3KBxngWNwSico5maxv-22" value="Сервис" style="text;html=1;strokeColor=none;fillColor=none;align=center;verticalAlign=middle;whiteSpace=wrap;rounded=0;" vertex="1" parent="1">
          <mxGeometry x="980" y="560" width="200" height="30" as="geometry" />
        </mxCell>
        <mxCell id="aJ3KBxngWNwSico5maxv-49" style="edgeStyle=orthogonalEdgeStyle;rounded=0;orthogonalLoop=1;jettySize=auto;html=1;entryX=0;entryY=0.5;entryDx=0;entryDy=0;strokeWidth=3;" edge="1" parent="1" source="aJ3KBxngWNwSico5maxv-26" target="aJ3KBxngWNwSico5maxv-33">
          <mxGeometry relative="1" as="geometry" />
        </mxCell>
        <mxCell id="aJ3KBxngWNwSico5maxv-26" value="" style="rounded=1;whiteSpace=wrap;html=1;fillColor=#6AAA78;" vertex="1" parent="1">
          <mxGeometry x="640" y="900" width="200" height="200" as="geometry" />
        </mxCell>
        <mxCell id="aJ3KBxngWNwSico5maxv-27" value="Сборка необходимых расходников для заказа" style="rounded=1;whiteSpace=wrap;html=1;" vertex="1" parent="1">
          <mxGeometry x="670" y="930" width="140" height="140" as="geometry" />
        </mxCell>
        <mxCell id="aJ3KBxngWNwSico5maxv-28" value="Сервис" style="text;html=1;strokeColor=none;fillColor=none;align=center;verticalAlign=middle;whiteSpace=wrap;rounded=0;" vertex="1" parent="1">
          <mxGeometry x="640" y="900" width="200" height="30" as="geometry" />
        </mxCell>
        <mxCell id="aJ3KBxngWNwSico5maxv-31" value="Производство Fur-tune печенья" style="rounded=1;whiteSpace=wrap;html=1;" vertex="1" parent="1">
          <mxGeometry x="1010" y="930" width="140" height="140" as="geometry" />
        </mxCell>
        <mxCell id="aJ3KBxngWNwSico5maxv-32" value="Внешняя система" style="text;html=1;strokeColor=none;fillColor=none;align=center;verticalAlign=middle;whiteSpace=wrap;rounded=0;" vertex="1" parent="1">
          <mxGeometry x="980" y="900" width="200" height="30" as="geometry" />
        </mxCell>
        <mxCell id="aJ3KBxngWNwSico5maxv-34" value="" style="rounded=1;whiteSpace=wrap;html=1;fillColor=#6AAA78;" vertex="1" parent="1">
          <mxGeometry x="980" y="220" width="200" height="200" as="geometry" />
        </mxCell>
        <mxCell id="aJ3KBxngWNwSico5maxv-35" value="Расчёт и списание средств у клиентов" style="rounded=1;whiteSpace=wrap;html=1;" vertex="1" parent="1">
          <mxGeometry x="1010" y="250" width="140" height="140" as="geometry" />
        </mxCell>
        <mxCell id="aJ3KBxngWNwSico5maxv-36" value="Сервис" style="text;html=1;strokeColor=none;fillColor=none;align=center;verticalAlign=middle;whiteSpace=wrap;rounded=0;" vertex="1" parent="1">
          <mxGeometry x="980" y="220" width="200" height="30" as="geometry" />
        </mxCell>
        <mxCell id="aJ3KBxngWNwSico5maxv-37" value="" style="rounded=1;whiteSpace=wrap;html=1;fillColor=#6AAA78;" vertex="1" parent="1">
          <mxGeometry x="1320" y="560" width="200" height="200" as="geometry" />
        </mxCell>
        <mxCell id="aJ3KBxngWNwSico5maxv-38" value="Система ставок менеджмента&lt;br&gt;Happy Cat Bot" style="rounded=1;whiteSpace=wrap;html=1;" vertex="1" parent="1">
          <mxGeometry x="1350" y="590" width="140" height="140" as="geometry" />
        </mxCell>
        <mxCell id="aJ3KBxngWNwSico5maxv-39" value="Сервис" style="text;html=1;strokeColor=none;fillColor=none;align=center;verticalAlign=middle;whiteSpace=wrap;rounded=0;" vertex="1" parent="1">
          <mxGeometry x="1320" y="560" width="200" height="30" as="geometry" />
        </mxCell>
        <mxCell id="aJ3KBxngWNwSico5maxv-41" value="" style="rounded=1;whiteSpace=wrap;html=1;fillColor=#6AAA78;" vertex="1" parent="1">
          <mxGeometry x="1320" y="220" width="200" height="200" as="geometry" />
        </mxCell>
        <mxCell id="aJ3KBxngWNwSico5maxv-42" value="Расчёт и выплата средств сотрудникам" style="rounded=1;whiteSpace=wrap;html=1;" vertex="1" parent="1">
          <mxGeometry x="1350" y="250" width="140" height="140" as="geometry" />
        </mxCell>
        <mxCell id="aJ3KBxngWNwSico5maxv-43" value="Сервис" style="text;html=1;strokeColor=none;fillColor=none;align=center;verticalAlign=middle;whiteSpace=wrap;rounded=0;" vertex="1" parent="1">
          <mxGeometry x="1320" y="220" width="200" height="30" as="geometry" />
        </mxCell>
        <mxCell id="aJ3KBxngWNwSico5maxv-54" value="sync" style="rounded=0;whiteSpace=wrap;html=1;" vertex="1" parent="1">
          <mxGeometry x="550" y="295" width="50" height="50" as="geometry" />
        </mxCell>
        <mxCell id="aJ3KBxngWNwSico5maxv-57" value="async&lt;br&gt;event" style="rounded=0;whiteSpace=wrap;html=1;" vertex="1" parent="1">
          <mxGeometry x="715" y="460" width="50" height="50" as="geometry" />
        </mxCell>
        <mxCell id="aJ3KBxngWNwSico5maxv-58" value="async&lt;br&gt;event" style="rounded=0;whiteSpace=wrap;html=1;" vertex="1" parent="1">
          <mxGeometry x="550" y="635" width="50" height="50" as="geometry" />
        </mxCell>
        <mxCell id="aJ3KBxngWNwSico5maxv-59" value="async&lt;br&gt;event" style="rounded=0;whiteSpace=wrap;html=1;" vertex="1" parent="1">
          <mxGeometry x="890" y="635" width="50" height="50" as="geometry" />
        </mxCell>
        <mxCell id="aJ3KBxngWNwSico5maxv-62" value="async&lt;br&gt;event" style="rounded=0;whiteSpace=wrap;html=1;" vertex="1" parent="1">
          <mxGeometry x="715" y="810" width="50" height="50" as="geometry" />
        </mxCell>
        <mxCell id="aJ3KBxngWNwSico5maxv-64" value="sync" style="rounded=0;whiteSpace=wrap;html=1;" vertex="1" parent="1">
          <mxGeometry x="880" y="975" width="50" height="50" as="geometry" />
        </mxCell>
        <mxCell id="aJ3KBxngWNwSico5maxv-66" value="async&lt;br&gt;data" style="rounded=0;whiteSpace=wrap;html=1;" vertex="1" parent="1">
          <mxGeometry x="1220" y="635" width="50" height="50" as="geometry" />
        </mxCell>
        <mxCell id="aJ3KBxngWNwSico5maxv-67" value="async&lt;br&gt;data" style="rounded=0;whiteSpace=wrap;html=1;" vertex="1" parent="1">
          <mxGeometry x="1055" y="460" width="50" height="50" as="geometry" />
        </mxCell>
        <mxCell id="aJ3KBxngWNwSico5maxv-69" value="async&lt;br&gt;data" style="rounded=0;whiteSpace=wrap;html=1;" vertex="1" parent="1">
          <mxGeometry x="1320" y="470" width="50" height="50" as="geometry" />
        </mxCell>
      </root>
    </mxGraphModel>
  </diagram>
</mxfile>
